HIERARCHY
ROOT Hips
{
    OFFSET   0.000000   0.000000   0.000000
    CHANNELS 6 Xposition Yposition Zposition Zrotation Xrotation Yrotation
    JOINT Chest
    {
        OFFSET   0.000000   8.007240   0.000000
        CHANNELS 3 Zrotation Xrotation Yrotation
        JOINT Chest2
        {
            OFFSET   0.000000  22.077100   0.000000
            CHANNELS 3 Zrotation Xrotation Yrotation
            JOINT Neck
            {
                OFFSET   0.000000  23.254800   0.000000
                CHANNELS 3 Zrotation Xrotation Yrotation
                JOINT Head
                {
                    OFFSET   0.000000  14.370000   1.956600
                    CHANNELS 3 Zrotation Xrotation Yrotation
                    End Site
                    {
                        OFFSET   0.000000  19.566000   0.000000
                    }
                }
            }
            JOINT LeftCollar
            {
                OFFSET   3.911900  19.017000  -0.467064
                CHANNELS 3 Zrotation Xrotation Yrotation
                JOINT LeftShoulder
                {
                    OFFSET  10.383700   0.000000   0.000000
                    CHANNELS 3 Zrotation Xrotation Yrotation
                    JOINT LeftElbow
                    {
                        OFFSET  26.662100   0.001476   0.000517
                        CHANNELS 3 Zrotation Xrotation Yrotation
                        JOINT LeftWrist
                        {
                            OFFSET  28.869000  -0.000025  -0.000106
                            CHANNELS 3 Zrotation Xrotation Yrotation
                            JOINT LeftFinger0
                            {
                                OFFSET   2.044660  -2.323460   3.252850
                                CHANNELS 3 Zrotation Xrotation Yrotation
                                JOINT LeftFinger01
                                {
                                    OFFSET   3.088130   0.000000   0.000000
                                    CHANNELS 3 Zrotation Xrotation Yrotation
                                    JOINT LeftFinger02
                                    {
                                        OFFSET   2.639460   0.000000   0.000000
                                        CHANNELS 3 Zrotation Xrotation Yrotation
                                        End Site
                                        {
                                            OFFSET   2.582190   0.000000   0.000000
                                        }
                                    }
                                }
                            }
                            JOINT LeftFinger1
                            {
                                OFFSET   8.364480   0.000000   3.252850
                                CHANNELS 3 Zrotation Xrotation Yrotation
                                JOINT LeftFinger11
                                {
                                    OFFSET   4.646930   0.000000   0.000000
                                    CHANNELS 3 Zrotation Xrotation Yrotation
                                    JOINT LeftFinger12
                                    {
                                        OFFSET   2.323460   0.000000   0.000000
                                        CHANNELS 3 Zrotation Xrotation Yrotation
                                        End Site
                                        {
                                            OFFSET   2.273050   0.000000   0.000000
                                        }
                                    }
                                }
                            }
                            JOINT LeftFinger2
                            {
                                OFFSET   8.364490   0.000015   1.078090
                                CHANNELS 3 Zrotation Xrotation Yrotation
                                JOINT LeftFinger21
                                {
                                    OFFSET   5.111620   0.000000   0.000000
                                    CHANNELS 3 Zrotation Xrotation Yrotation
                                    JOINT LeftFinger22
                                    {
                                        OFFSET   2.788160   0.000016   0.000000
                                        CHANNELS 3 Zrotation Xrotation Yrotation
                                        End Site
                                        {
                                            OFFSET   2.727660   0.000000   0.000000
                                        }
                                    }
                                }
                            }
                            JOINT LeftFinger3
                            {
                                OFFSET   7.899780   0.000017  -1.078090
                                CHANNELS 3 Zrotation Xrotation Yrotation
                                JOINT LeftFinger31
                                {
                                    OFFSET   4.646930   0.000000   0.000000
                                    CHANNELS 3 Zrotation Xrotation Yrotation
                                    JOINT LeftFinger32
                                    {
                                        OFFSET   2.323470   0.000000   0.000000
                                        CHANNELS 3 Zrotation Xrotation Yrotation
                                        End Site
                                        {
                                            OFFSET   2.273050   0.000000   0.000000
                                        }
                                    }
                                }
                            }
                            JOINT LeftFinger4
                            {
                                OFFSET   7.435090   0.000000  -3.252850
                                CHANNELS 3 Zrotation Xrotation Yrotation
                                JOINT LeftFinger41
                                {
                                    OFFSET   3.717550   0.000000   0.000000
                                    CHANNELS 3 Zrotation Xrotation Yrotation
                                    JOINT LeftFinger42
                                    {
                                        OFFSET   1.858770   0.000000   0.000000
                                        CHANNELS 3 Zrotation Xrotation Yrotation
                                        End Site
                                        {
                                            OFFSET   1.818440   0.000000   0.000000
                                        }
                                    }
                                }
                            }
                        }
                    }
                }
            }
            JOINT RightCollar
            {
                OFFSET  -3.911900  19.017000  -0.467063
                CHANNELS 3 Zrotation Xrotation Yrotation
                JOINT RightShoulder
                {
                    OFFSET -10.383700   0.000019   0.000000
                    CHANNELS 3 Zrotation Xrotation Yrotation
                    JOINT RightElbow
                    {
                        OFFSET -26.662100   0.001175   0.000102
                        CHANNELS 3 Zrotation Xrotation Yrotation
                        JOINT RightWrist
                        {
                            OFFSET -28.869000   0.000016  -0.000079
                            CHANNELS 3 Zrotation Xrotation Yrotation
                            JOINT RightFinger0
                            {
                                OFFSET  -2.044660  -2.323490   3.252850
                                CHANNELS 3 Zrotation Xrotation Yrotation
                                JOINT RightFinger01
                                {
                                    OFFSET  -3.088140   0.000000   0.000000
                                    CHANNELS 3 Zrotation Xrotation Yrotation
                                    JOINT RightFinger02
                                    {
                                        OFFSET  -2.639460   0.000000   0.000000
                                        CHANNELS 3 Zrotation Xrotation Yrotation
                                        End Site
                                        {
                                            OFFSET  -2.582190   0.000000   0.000000
                                        }
                                    }
                                }
                            }
                            JOINT RightFinger1
                            {
                                OFFSET  -8.364480   0.000000   3.252850
                                CHANNELS 3 Zrotation Xrotation Yrotation
                                JOINT RightFinger11
                                {
                                    OFFSET  -4.646930   0.000000   0.000000
                                    CHANNELS 3 Zrotation Xrotation Yrotation
                                    JOINT RightFinger12
                                    {
                                        OFFSET  -2.323470   0.000000   0.000000
                                        CHANNELS 3 Zrotation Xrotation Yrotation
                                        End Site
                                        {
                                            OFFSET  -2.273050   0.000000   0.000000
                                        }
                                    }
                                }
                            }
                            JOINT RightFinger2
                            {
                                OFFSET  -8.364480   0.000000   1.078090
                                CHANNELS 3 Zrotation Xrotation Yrotation
                                JOINT RightFinger21
                                {
                                    OFFSET  -5.111620   0.000000   0.000000
                                    CHANNELS 3 Zrotation Xrotation Yrotation
                                    JOINT RightFinger22
                                    {
                                        OFFSET  -2.788160   0.000000   0.000000
                                        CHANNELS 3 Zrotation Xrotation Yrotation
                                        End Site
                                        {
                                            OFFSET  -2.727660   0.000000   0.000000
                                        }
                                    }
                                }
                            }
                            JOINT RightFinger3
                            {
                                OFFSET  -7.899780   0.000000  -1.078090
                                CHANNELS 3 Zrotation Xrotation Yrotation
                                JOINT RightFinger31
                                {
                                    OFFSET  -4.646930   0.000000   0.000000
                                    CHANNELS 3 Zrotation Xrotation Yrotation
                                    JOINT RightFinger32
                                    {
                                        OFFSET  -2.323470   0.000000   0.000000
                                        CHANNELS 3 Zrotation Xrotation Yrotation
                                        End Site
                                        {
                                            OFFSET  -2.273050   0.000000   0.000000
                                        }
                                    }
                                }
                            }
                            JOINT RightFinger4
                            {
                                OFFSET  -7.435090   0.000000  -3.252850
                                CHANNELS 3 Zrotation Xrotation Yrotation
                                JOINT RightFinger41
                                {
                                    OFFSET  -3.717550   0.000000   0.000000
                                    CHANNELS 3 Zrotation Xrotation Yrotation
                                    JOINT RightFinger42
                                    {
                                        OFFSET  -1.858770   0.000000   0.000000
                                        CHANNELS 3 Zrotation Xrotation Yrotation
                                        End Site
                                        {
                                            OFFSET  -1.818440   0.000000   0.000000
                                        }
                                    }
                                }
                            }
                        }
                    }
                }
            }
        }
    }
    JOINT LeftHip
    {
        OFFSET   9.783040   0.000000   0.000000
        CHANNELS 3 Zrotation Xrotation Yrotation
        JOINT LeftKnee
        {
            OFFSET   0.000032 -41.789100  -0.002222
            CHANNELS 3 Zrotation Xrotation Yrotation
            JOINT LeftAnkle
            {
                OFFSET   0.000087 -41.133200  -0.000135
                CHANNELS 3 Zrotation Xrotation Yrotation
                JOINT LeftToe
                {
                    OFFSET   0.000000  -6.358960  14.674500
                    CHANNELS 3 Zrotation Xrotation Yrotation
                    End Site
                    {
                        OFFSET   0.000000   0.000000   3.913200
                    }
                }
            }
        }
    }
    JOINT RightHip
    {
        OFFSET  -9.783040   0.000000   0.000000
        CHANNELS 3 Zrotation Xrotation Yrotation
        JOINT RightKnee
        {
            OFFSET   0.000047 -41.789100  -0.000896
            CHANNELS 3 Zrotation Xrotation Yrotation
            JOINT RightAnkle
            {
                OFFSET  -0.000117 -41.133300  -0.000248
                CHANNELS 3 Zrotation Xrotation Yrotation
                JOINT RightToe
                {
                    OFFSET   0.000000  -6.358970  14.674500
                    CHANNELS 3 Zrotation Xrotation Yrotation
                    End Site
                    {
                        OFFSET   0.000000   0.000000   3.913200
                    }
                }
            }
        }
    }
}
MOTION
Frames: 5
Frame Time:   0.016667
 -2.189960  89.517400   2.186840  -2.622730  -9.042070   1.327860   2.526930   5.676250  -1.484150   5.240000  11.279000  -3.243530   1.339540  -1.312850   0.029714   2.203870  -2.657940   6.031050  -7.435880   0.683949  -2.367820 -62.515000  -4.221520 -56.515600  11.471100 -15.213900 -68.790000   3.849220  21.178000  -0.248995  45.680500  38.042800 -79.252200  11.367700  -0.001342   0.000539  10.683900  -0.000662  -0.000430 -14.259100   2.167240  -8.461080 -11.797600   0.003067   0.004127  -8.258300   0.002863   0.005191 -17.377000   0.292325  -0.931156 -17.379500   0.003303   0.004343 -11.574800   0.001803   0.005593 -16.925000  -2.463800   8.045300 -17.098700   0.006418   0.004912 -11.387700  -0.000650   0.004298 -19.389900  -4.876680  13.584600 -29.958200   0.006762   0.004563 -19.952200  -0.003780   0.003803   3.999190  -2.254300  13.942200  49.073000  -5.115370  50.654200 -24.180700 -16.411600  60.498000 -11.747900  25.802100  14.065100 -50.233600  35.998500  72.684500 -12.035800  -0.000280   0.000000 -11.017900  -0.000098  -0.000099  10.623600   2.747910  14.318500   8.974770   0.003302  -0.001073   6.282340  -0.000215  -0.002239  11.310700   0.469792   2.334160  11.319800   0.014523  -0.006559   7.539010  -0.000736  -0.005438  12.794700  -2.314680 -10.096700  12.998300   0.007445  -0.001772   8.656860  -0.000335  -0.005962  14.768200  -7.154800 -25.296100  24.562100  -0.004280  -0.003263  16.358400   0.000542  -0.002204   3.422940  13.719200   5.509500   1.039400   0.148258   7.371560  -2.221570  -3.943140  -0.098835  -0.000000   0.000000  -0.000000   2.444630   8.376940  -5.098900   1.695130   4.489340  -5.712600  -3.878450  -2.968480  -1.941820   0.000000   0.000000  -0.000000
 -2.204970  89.517100   2.206110  -2.627100  -9.020820   1.296890   2.534450   5.665440  -1.507580   5.257020  11.256000  -3.290860   1.307210  -1.314390   0.029607   2.150390  -2.661750   6.107110  -7.538340   0.677967  -2.284030 -63.039900  -4.270770 -55.966500  11.560600 -15.190400 -68.722800   4.128420  20.522600  -0.286427  45.636000  37.937200 -79.105000  11.188600  -0.001337   0.000429  10.594300  -0.000676  -0.000472 -14.354400   2.192840  -8.501680 -11.877900   0.003070   0.004126  -8.314550   0.002861   0.005190 -17.491400   0.284640  -0.902156 -17.493900   0.003249   0.004344 -11.651000   0.001835   0.005589 -17.085800  -2.518340   8.139070 -17.265300   0.006404   0.004899 -11.498700  -0.000645   0.004301 -19.607500  -5.029080  13.829600 -30.328000   0.006790   0.004406 -20.198400  -0.003776   0.003940   4.110520  -2.202910  13.992400  49.526100  -4.801060  50.006600 -24.173000 -16.699000  60.282200 -12.799800  25.124600  14.414500 -49.982200  35.805600  72.420400 -11.607000  -0.000236   0.000009 -10.803500  -0.000247  -0.000274  10.951000   2.825690  14.351400   9.252310   0.003729  -0.001017   6.476610  -0.000210  -0.002270  11.547200   0.497686   2.430590  11.557900   0.014553  -0.006507   7.697580  -0.000735  -0.005411  13.034900  -2.329290  -9.961570  13.235700   0.007532  -0.001664   8.814990  -0.000383  -0.005955  14.929000  -7.210300 -25.184600  24.798900  -0.004276  -0.003329  16.516100   0.000628  -0.002255   3.426250  13.720900   5.506970   1.040300   0.140381   7.394260  -2.228600  -3.951150  -0.087461  -0.000000   0.000000   0.000000   2.457520   8.369630  -5.067690   1.696170   4.478560  -5.719310  -3.885400  -2.972620  -1.936270  -0.000000   0.000000   0.000000
 -2.221200  89.516700   2.224170  -2.632290  -9.001790   1.264870   2.542990   5.655150  -1.527420   5.275750  11.234200  -3.331090   1.275180  -1.314610   0.029224   2.097960  -2.662000   6.177470  -7.634620   0.673425  -2.202470 -63.555300  -4.303700 -55.386900  11.639200 -15.160500 -68.641500   4.363260  19.849800  -0.323542  45.640200  37.913000 -79.066000  11.118200  -0.001306   0.000307  10.559100  -0.000683  -0.000502 -14.385800   2.205030  -8.529140 -11.904900   0.003073   0.004124  -8.333440   0.002859   0.005189 -17.549100   0.276019  -0.872097 -17.551500   0.003196   0.004346 -11.689300   0.001865   0.005583 -17.225900  -2.567610   8.225680 -17.410800   0.006384   0.004885 -11.595600  -0.000640   0.004305 -19.803400  -5.166740  14.047700 -30.662100   0.006820   0.004310 -20.420900  -0.003768   0.004073   4.229990  -2.168550  14.044500  49.989400  -4.479060  49.350000 -24.144800 -16.968300  60.038800 -13.832900  24.401700  14.767400 -49.827600  35.679600  72.281800 -11.383200   0.000067   0.000069 -10.691600  -0.000273  -0.000356  11.305800   2.944910  14.384900   9.555370   0.003888  -0.000961   6.688750  -0.000203  -0.002304  11.803100   0.532565   2.527020  11.815500   0.014583  -0.006454   7.869120  -0.000735  -0.005385  13.304200  -2.342750  -9.826440  13.505700   0.007619  -0.001559   8.994800  -0.000429  -0.005947  15.138000  -7.266990 -25.070800  25.132900  -0.004272  -0.003455  16.738500   0.000714  -0.002340   3.432310  13.725200   5.505820   1.041240   0.130371   7.415720  -2.235840  -3.957550  -0.076313  -0.000000   0.000000  -0.000000   2.471950   8.363930  -5.033460   1.696700   4.469390  -5.728740  -3.892700  -2.976830  -1.931420   0.000000   0.000000   0.000000
 -2.236260  89.516400   2.240630  -2.637400  -8.984600   1.232620   2.553280   5.646860  -1.540750   5.297440  11.216700  -3.358490   1.241750  -1.310200   0.028439   2.043100  -2.653050   6.242430  -7.719540   0.657285  -2.128950 -64.064800  -4.288490 -54.706700  11.700200 -15.263300 -68.362600   4.585270  19.264900  -0.584619  45.987400  38.426700 -79.739600  11.862100   0.018546   0.000152  10.931100   0.009484  -0.000507 -14.376200   2.194810  -8.501200 -11.896100   0.003079   0.004125  -8.327310   0.002858   0.005183 -17.539500   0.262622  -0.829146 -17.541800   0.003143   0.004352 -11.682800   0.001892   0.005573 -17.317800  -2.599820   8.282520 -17.506400   0.006371   0.004893 -11.659200  -0.000634   0.004308 -19.934000  -5.268120  14.216200 -30.888600   0.006849   0.004347 -20.571800  -0.003760   0.004188   4.363610  -2.175480  14.090500  50.491000  -4.170180  48.652800 -24.115400 -17.164700  59.801100 -14.855200  23.518700  15.130700 -49.520000  35.382400  71.896600 -10.875600   0.001074   0.000296 -10.437800  -0.000282  -0.000471  11.604700   3.014350  14.335700   9.806660   0.004183  -0.000922   6.864630  -0.000200  -0.002334  12.048200   0.540729   2.506530  12.061000   0.014613  -0.006384   8.032650  -0.000731  -0.005397  13.591200  -2.395250  -9.843380  13.797800   0.007699  -0.001448   9.189340  -0.000463  -0.005932  15.341900  -7.370080 -25.075500  25.473200  -0.004275  -0.003616  16.965100   0.000808  -0.002413   3.438610  13.733800   5.510340   1.042180   0.115464   7.432490  -2.242990  -3.960360  -0.065628  -0.000000   0.000000   0.000000   2.481390   8.361500  -5.004530   1.697400   4.462190  -5.732750  -3.900050  -2.982770  -1.922090   0.000000   0.000000   0.000000
 -2.251690  89.516100   2.256760  -2.642450  -8.970120   1.201550   2.563540   5.639790  -1.551220   5.318840  11.201700  -3.380190   1.209800  -1.299120   0.027502   1.990330  -2.630840   6.317010  -7.800320   0.641117  -2.058050 -64.534300  -4.247130 -54.015800  11.781900 -15.422500 -67.945200   4.833990  18.713900  -0.901134  46.350800  38.930300 -80.437700  12.606100   0.038371  -0.000000  11.303100   0.019652  -0.000513 -14.367200   2.184670  -8.458360 -11.887400   0.003085   0.004125  -8.321170   0.002857   0.005177 -17.530000   0.246583  -0.778292 -17.532000   0.003091   0.004356 -11.676300   0.001920   0.005566 -17.399300  -2.627730   8.329900 -17.591000   0.006360   0.004901 -11.715600  -0.000627   0.004310 -20.051600  -5.361090  14.368100 -31.093100   0.006879   0.004603 -20.708000  -0.003755   0.004300   4.507160  -2.182360  14.141300  51.018400  -3.883490  47.938900 -24.123800 -17.320400  59.574600 -15.785100  22.549600  15.445300 -49.196900  35.073200  71.523500 -10.357900   0.002148   0.000471 -10.178900  -0.000284  -0.000580  11.930900   3.080880  14.235500  10.078300   0.004477  -0.000885   7.054760  -0.000198  -0.002363  12.318800   0.541916   2.453780  12.331600   0.014641  -0.006310   8.212870  -0.000726  -0.005410  13.915000  -2.464120  -9.868640  14.127700   0.007779  -0.001339   9.409060  -0.000496  -0.005915  15.578300  -7.492340 -25.081400  25.868400  -0.004278  -0.003750  17.228300   0.000902  -0.002484   3.445850  13.739700   5.516380   1.042700   0.105855   7.447920  -2.251310  -3.967740  -0.056122  -0.000000   0.000000  -0.000000   2.490200   8.361060  -4.989290   1.697630   4.457130  -5.734070  -3.907550  -2.990010  -1.909130   0.000000   0.000000   0.000000
